<svg width="57px" height="57px" viewBox="0 0 57 57" version="1.1" xmlns="http://www.w3.org/2000/svg" xmlnsXlink="http://www.w3.org/1999/xlink">
    <title>logo</title>
    <g id="Home" stroke="none" strokeWidth="1" fill="none" fillRule="evenodd">
        <g id="Desktop-HD" transform="translate(-250.000000, -54.000000)">
            <g id="logo" transform="translate(250.000000, 54.000000)">
                <g id="Group-3">
                    <rect id="Rectangle-Copy" stroke="#120B2D" strokeWidth="4.5" x="2.25" y="2.25" width="52.5" height="52.5"></rect>
                    <g id="Group-Copy-2" transform="translate(14.000000, 19.000000)" strokeWidth="0.5">
                        <circle id="Oval-Copy-6" stroke="#979797" fill="#D8D8D8" cx="15.84" cy="16.8" r="2.15"></circle>
                        <path d="M4.32,0.0512000133 C11.428144,0.0512000133 19.588144,0.0341333422 28.8,-4.63842298e-14 C28.8,2.21035862 28.8,3.8258794 28.8,4.84656233 C27.5701695,4.78644561 24.0477655,5.82970017 24.0477655,9.6 C24.0477655,13.3702998 27.6137403,14.3538602 28.8,14.3538602 C28.8,15.933687 28.8,16.6714171 28.8,19.1556908 C24.3025575,19.2 19.2485437,15.6003214 19.2485437,9.6 C19.2485437,7.4310222 19.9294583,5.81489996 20.5413193,4.8 C16.56,4.8 12.7512944,4.75343767 4.8,4.8 C4.8,7.6200571 9.6,9.6 9.6,14.4 C9.55332029,17.2521968 7.1770657,19.1556908 4.8,19.1556908 C3.50326448,19.1556908 1.90326448,19.1556908 0,19.1556908 L0,14.4 C1.64183373,14.4 3.24183373,14.3846201 4.8,14.3538602 C4.8,11.4646638 0,10.4346611 0.0450487219,4.8 C0.0450487219,2.09191752 2.30531836,0.179255252 4.32,0.0512000133 Z" id="Path-5" stroke="#120B2D" fill="#120B2D"></path>
                        <path d="M18.432,19.1560952 C17.7217569,19.1268253 16.9217569,19.1268253 16.032,19.1560952 C13.5014123,19.1560952 11.2806883,17.1313812 11.2806883,14.4 C11.2806883,12.44443 11.2804589,9.96442997 11.28,6.96 L16.032,6.96 C16.032,10.6745495 16.032,13.1545495 16.032,14.4 C16.7890237,14.4 17.5890237,14.4 18.432,14.4 L18.432,19.1560952 Z" id="Path-6" stroke="#120B2D" fill="#120B2D"></path>
                    </g>
                </g>
            </g>
        </g>
    </g>
</svg>